<svg xmlns="http://www.w3.org/2000/svg" width="43" height="43" fill="none"><g clip-path="url(#a)"><path fill="#000" d="M0 .831v42h42v-42z"/><circle cx="21" cy="21.831" r="15" fill="#fff"/><path fill="#000" d="M21 30.831q-1.575 0-2.7-.499a4.67 4.67 0 0 1-1.875-1.595q-.725-1.097-1.075-2.792-.35-1.72-.35-4.114 0-2.393.35-4.089.35-1.72 1.075-2.792.75-1.097 1.875-1.595 1.125-.524 2.7-.524t2.7.524q1.125.498 1.85 1.595.75 1.073 1.1 2.792.35 1.695.35 4.09 0 2.393-.35 4.113-.35 1.694-1.1 2.792a4.5 4.5 0 0 1-1.85 1.595q-1.125.5-2.7.5m0-2.992q.626 0 1.05-.174.425-.2.675-.598.25-.425.35-1.097.125-.674.125-1.67v-4.937q0-1.97-.475-2.742-.475-.798-1.725-.798t-1.725.797q-.475.774-.475 2.743V24.3q0 .998.1 1.67.124.674.375 1.098.25.398.675.598.424.174 1.05.174"/></g><defs><clipPath id="a"><rect width="42" height="42" y=".831" fill="#fff" rx="12"/></clipPath></defs></svg>